<svg xmlns="http://www.w3.org/2000/svg" xmlns:xlink="http://www.w3.org/1999/xlink" viewBox="0,0,256,256" width="64px" height="64px" fill-rule="nonzero"><g fill="#dddddd" fill-rule="nonzero" stroke="#dddddd" stroke-width="8" stroke-linecap="butt" stroke-linejoin="round" stroke-miterlimit="10" stroke-dasharray="" stroke-dashoffset="0" font-family="none" font-weight="none" font-size="none" text-anchor="none" style="mix-blend-mode: normal"><path transform="translate(0,-9.09091) scale(4,4.90909)" d="M54,20v24c0,0.94907 -0.13166,1.86612 -0.37848,2.73463c-1.18952,4.19359 -5.04668,7.26537 -9.62152,7.26537h-24c-5.52,0 -10,-4.48 -10,-10v-24c0,-0.25 0.01,-0.51 0.03,-0.75c0.22,-2.96 1.73,-5.56 3.97,-7.25h0.01c1.67,-1.26 3.74,-2 5.99,-2h24c5.52,0 10,4.48 10,10z" id="strokeMainSVG"></path></g><g fill="none" fill-rule="nonzero" stroke="none" stroke-width="none" stroke-linecap="none" stroke-linejoin="none" stroke-miterlimit="10" stroke-dasharray="" stroke-dashoffset="0" font-family="none" font-weight="none" font-size="none" text-anchor="none" style="mix-blend-mode: normal"><g transform="scale(4,4)"><ellipse cx="32" cy="61" rx="20" ry="3" fill="#000000" stroke="none" stroke-width="1" stroke-linecap="butt" stroke-linejoin="miter" opacity="0.3"></ellipse><path d="M54,20v24c0,2.25 -0.74,4.32 -2,5.99v0.01c-1.69,2.24 -4.29,3.75 -7.25,3.97c-0.24,0.02 -0.5,0.03 -0.75,0.03h-24c-5.52,0 -10,-4.48 -10,-10v-24c0,-0.25 0.01,-0.51 0.03,-0.75c0.22,-2.96 1.73,-5.56 3.97,-7.25h0.01c1.67,-1.26 3.74,-2 5.99,-2h24c5.52,0 10,4.48 10,10z" fill="#ffce29" stroke="none" stroke-width="1" stroke-linecap="butt" stroke-linejoin="miter"></path><path d="M14.01,12h-0.01c-2.24,1.69 -3.75,4.29 -3.97,7.25c-0.02,0.24 -0.03,0.5 -0.03,0.75v12c2.761,0 5,-2.239 5,-5v-7c0,-0.108 0.003,-0.221 0.017,-0.38c0.102,-1.375 0.778,-2.65 1.862,-3.525c0.048,-0.033 0.095,-0.068 0.142,-0.103c0.86,-0.649 1.89,-0.992 2.979,-0.992h6c2.761,0 5,-2.239 5,-5h-11c-2.25,0 -4.32,0.74 -5.99,2z" fill="#ffffff" stroke="none" stroke-width="1" stroke-linecap="butt" stroke-linejoin="miter" opacity="0.3"></path><path d="M54,44v-16c-2.761,0 -5,2.238 -5,5v11c0,2.757 -2.243,5 -5,5h-11c-2.761,0 -5,2.238 -5,5h16c5.523,0 10,-4.477 10,-10z" fill="#000000" stroke="none" stroke-width="1" stroke-linecap="butt" stroke-linejoin="miter" opacity="0.15"></path><path d="M13.5,23.5v-3.5c0,-0.153 0.005,-0.312 0.018,-0.459c0.135,-1.809 1.003,-3.46 2.396,-4.594l0.204,-0.152" fill="none" stroke="#ffffff" stroke-width="3" stroke-linecap="round" stroke-linejoin="round"></path><g fill="#9c34c2" stroke="none" stroke-width="1" stroke-linecap="butt" stroke-linejoin="miter"><path d="M28.441,47.566c-0.453,0.013 -0.807,-0.106 -1.061,-0.36c-0.253,-0.253 -0.38,-0.58 -0.38,-0.981c0,-0.306 0.09,-0.574 0.271,-0.802c0.179,-0.227 0.443,-0.352 0.791,-0.38l0.58,-0.041c1.069,-0.065 1.602,-0.628 1.602,-1.682v-8.632c0,-0.507 0.134,-0.898 0.401,-1.172c0.267,-0.274 0.647,-0.411 1.143,-0.411c1.04,0 1.561,0.528 1.561,1.583v8.593c0,2.657 -1.402,4.072 -4.207,4.246z"></path><path d="M41.219,47.626c-0.854,0 -1.71,-0.093 -2.564,-0.28c-0.854,-0.186 -1.596,-0.46 -2.223,-0.821c-0.373,-0.2 -0.608,-0.469 -0.701,-0.81c-0.093,-0.341 -0.073,-0.672 0.06,-0.993c0.134,-0.319 0.347,-0.546 0.641,-0.68c0.293,-0.134 0.647,-0.101 1.061,0.099c0.535,0.308 1.13,0.535 1.783,0.681c0.654,0.147 1.302,0.22 1.943,0.22c0.962,0 1.653,-0.15 2.073,-0.45c0.421,-0.302 0.631,-0.678 0.631,-1.133c0,-0.386 -0.147,-0.694 -0.44,-0.921c-0.295,-0.227 -0.808,-0.421 -1.544,-0.58l-2.262,-0.481c-2.523,-0.535 -3.786,-1.843 -3.786,-3.926c0,-0.893 0.241,-1.679 0.722,-2.354c0.481,-0.673 1.151,-1.198 2.013,-1.571c0.861,-0.373 1.858,-0.561 2.994,-0.561c0.747,0 1.482,0.09 2.202,0.271c0.722,0.179 1.356,0.443 1.904,0.791c0.333,0.2 0.541,0.461 0.621,0.781c0.08,0.321 0.057,0.628 -0.07,0.923c-0.127,0.293 -0.341,0.5 -0.641,0.619c-0.302,0.121 -0.672,0.075 -1.112,-0.14c-0.442,-0.227 -0.91,-0.393 -1.403,-0.5c-0.494,-0.106 -1.001,-0.16 -1.522,-0.16c-0.841,0 -1.491,0.163 -1.953,0.491c-0.46,0.328 -0.691,0.751 -0.691,1.271c0,0.388 0.14,0.701 0.422,0.942c0.28,0.24 0.768,0.434 1.462,0.58l2.262,0.481c2.59,0.561 3.886,1.83 3.886,3.806c0,0.88 -0.238,1.653 -0.711,2.313c-0.474,0.662 -1.143,1.175 -2.003,1.542c-0.86,0.366 -1.878,0.55 -3.054,0.55z"></path></g></g></g></svg>